<svg width="984" height="345" viewBox="0 0 984 345" fill="none" xmlns="http://www.w3.org/2000/svg">
<g clip-path="url(#clip0)">
<rect width="984" height="345" fill="#3E1793"/>
<path d="M71.56 93.16H97.4C99.6933 93.16 101.747 93.5067 103.56 94.2C105.427 94.8933 107 95.8533 108.28 97.08C109.56 98.3067 110.52 99.8267 111.16 101.64C111.853 103.4 112.2 105.347 112.2 107.48C112.2 109.613 111.907 111.427 111.32 112.92C110.787 114.36 110.04 115.56 109.08 116.52C108.173 117.48 107.107 118.2 105.88 118.68C104.707 119.16 103.48 119.427 102.2 119.48V119.96C103.427 119.96 104.733 120.2 106.12 120.68C107.56 121.16 108.867 121.933 110.04 123C111.267 124.013 112.28 125.347 113.08 127C113.88 128.6 114.28 130.6 114.28 133C114.28 135.24 113.907 137.347 113.16 139.32C112.467 141.24 111.48 142.92 110.2 144.36C108.92 145.8 107.4 146.947 105.64 147.8C103.88 148.6 101.96 149 99.88 149H71.56V93.16ZM82.12 140.04H96.84C98.8667 140.04 100.44 139.533 101.56 138.52C102.68 137.453 103.24 135.933 103.24 133.96V131.24C103.24 129.267 102.68 127.747 101.56 126.68C100.44 125.613 98.8667 125.08 96.84 125.08H82.12V140.04ZM82.12 116.44H95.16C97.08 116.44 98.5733 115.933 99.64 114.92C100.707 113.853 101.24 112.387 101.24 110.52V108.04C101.24 106.173 100.707 104.733 99.64 103.72C98.5733 102.653 97.08 102.12 95.16 102.12H82.12V116.44ZM128.287 101.16C126.154 101.16 124.607 100.68 123.647 99.72C122.74 98.76 122.287 97.5333 122.287 96.04V94.44C122.287 92.9467 122.74 91.72 123.647 90.76C124.607 89.8 126.154 89.32 128.287 89.32C130.367 89.32 131.887 89.8 132.847 90.76C133.807 91.72 134.287 92.9467 134.287 94.44V96.04C134.287 97.5333 133.807 98.76 132.847 99.72C131.887 100.68 130.367 101.16 128.287 101.16ZM123.167 107.24H133.407V149H123.167V107.24ZM144.476 149V107.24H154.716V114.2H155.116C155.97 111.96 157.303 110.093 159.116 108.6C160.983 107.053 163.543 106.28 166.796 106.28C171.116 106.28 174.423 107.693 176.716 110.52C179.01 113.347 180.156 117.373 180.156 122.6V149H169.916V123.64C169.916 120.653 169.383 118.413 168.316 116.92C167.25 115.427 165.49 114.68 163.036 114.68C161.97 114.68 160.93 114.84 159.916 115.16C158.956 115.427 158.076 115.853 157.276 116.44C156.53 116.973 155.916 117.667 155.436 118.52C154.956 119.32 154.716 120.28 154.716 121.4V149H144.476ZM221.428 149C219.187 149 217.401 148.36 216.068 147.08C214.788 145.747 213.988 143.987 213.668 141.8H213.188C212.494 144.52 211.081 146.573 208.947 147.96C206.814 149.293 204.174 149.96 201.027 149.96C196.761 149.96 193.481 148.84 191.187 146.6C188.894 144.36 187.747 141.373 187.747 137.64C187.747 133.32 189.294 130.12 192.387 128.04C195.481 125.907 199.881 124.84 205.588 124.84H212.707V121.8C212.707 119.453 212.094 117.64 210.867 116.36C209.641 115.08 207.667 114.44 204.947 114.44C202.547 114.44 200.601 114.973 199.107 116.04C197.667 117.053 196.441 118.28 195.427 119.72L189.347 114.28C190.894 111.88 192.947 109.96 195.507 108.52C198.067 107.027 201.454 106.28 205.667 106.28C211.321 106.28 215.614 107.56 218.548 110.12C221.481 112.68 222.948 116.36 222.948 121.16V140.84H227.108V149H221.428ZM204.467 142.52C206.761 142.52 208.707 142.013 210.307 141C211.907 139.987 212.707 138.493 212.707 136.52V131H206.148C200.814 131 198.147 132.707 198.147 136.12V137.48C198.147 139.187 198.681 140.467 199.747 141.32C200.867 142.12 202.441 142.52 204.467 142.52ZM234.595 149V107.24H244.835V115.88H245.235C245.502 114.76 245.902 113.693 246.435 112.68C247.022 111.613 247.768 110.68 248.675 109.88C249.582 109.08 250.648 108.44 251.875 107.96C253.155 107.48 254.622 107.24 256.275 107.24H258.515V116.92H255.315C251.848 116.92 249.235 117.427 247.475 118.44C245.715 119.453 244.835 121.107 244.835 123.4V149H234.595ZM291.426 107.24H301.026L284.226 156.44C283.693 157.933 283.08 159.213 282.386 160.28C281.746 161.4 280.973 162.307 280.066 163C279.16 163.693 278.066 164.2 276.786 164.52C275.506 164.84 274.013 165 272.306 165H266.146V156.84H273.666L275.586 151L260.626 107.24H270.786L278.066 129.32L280.786 139.88H281.266L284.146 129.32L291.426 107.24ZM88.92 240.96C84.12 240.96 80.04 240.107 76.68 238.4C73.3733 236.693 70.52 234.453 68.12 231.68L75.24 224.8C77.16 227.04 79.2933 228.747 81.64 229.92C84.04 231.093 86.68 231.68 89.56 231.68C92.8133 231.68 95.2667 230.987 96.92 229.6C98.5733 228.16 99.4 226.24 99.4 223.84C99.4 221.973 98.8667 220.453 97.8 219.28C96.7333 218.107 94.7333 217.253 91.8 216.72L86.52 215.92C75.3733 214.16 69.8 208.747 69.8 199.68C69.8 197.173 70.2533 194.907 71.16 192.88C72.12 190.853 73.48 189.12 75.24 187.68C77 186.24 79.1067 185.147 81.56 184.4C84.0667 183.6 86.8933 183.2 90.04 183.2C94.2533 183.2 97.9333 183.893 101.08 185.28C104.227 186.667 106.92 188.72 109.16 191.44L101.96 198.24C100.573 196.533 98.8933 195.147 96.92 194.08C94.9467 193.013 92.4667 192.48 89.48 192.48C86.44 192.48 84.1467 193.067 82.6 194.24C81.1067 195.36 80.36 196.96 80.36 199.04C80.36 201.173 80.9733 202.747 82.2 203.76C83.4267 204.773 85.4 205.52 88.12 206L93.32 206.96C98.9733 207.973 103.133 209.787 105.8 212.4C108.52 214.96 109.88 218.56 109.88 223.2C109.88 225.867 109.4 228.293 108.44 230.48C107.533 232.613 106.173 234.48 104.36 236.08C102.6 237.627 100.413 238.827 97.8 239.68C95.24 240.533 92.28 240.96 88.92 240.96ZM135.906 240.96C132.813 240.96 130.04 240.453 127.586 239.44C125.186 238.373 123.133 236.907 121.426 235.04C119.773 233.12 118.493 230.827 117.586 228.16C116.68 225.44 116.226 222.4 116.226 219.04C116.226 215.733 116.653 212.747 117.506 210.08C118.413 207.413 119.693 205.147 121.346 203.28C123 201.36 125.026 199.893 127.426 198.88C129.826 197.813 132.546 197.28 135.586 197.28C138.84 197.28 141.666 197.84 144.066 198.96C146.466 200.08 148.44 201.6 149.986 203.52C151.533 205.44 152.68 207.68 153.426 210.24C154.226 212.747 154.626 215.44 154.626 218.32V221.68H126.866V222.72C126.866 225.76 127.72 228.213 129.426 230.08C131.133 231.893 133.666 232.8 137.026 232.8C139.586 232.8 141.666 232.267 143.266 231.2C144.92 230.133 146.386 228.773 147.666 227.12L153.186 233.28C151.48 235.68 149.133 237.573 146.146 238.96C143.213 240.293 139.8 240.96 135.906 240.96ZM135.746 204.96C133.026 204.96 130.866 205.867 129.266 207.68C127.666 209.493 126.866 211.84 126.866 214.72V215.36H143.986V214.64C143.986 211.76 143.266 209.44 141.826 207.68C140.44 205.867 138.413 204.96 135.746 204.96ZM193.556 240C191.316 240 189.529 239.36 188.196 238.08C186.916 236.747 186.116 234.987 185.796 232.8H185.316C184.622 235.52 183.209 237.573 181.076 238.96C178.942 240.293 176.302 240.96 173.156 240.96C168.889 240.96 165.609 239.84 163.316 237.6C161.022 235.36 159.876 232.373 159.876 228.64C159.876 224.32 161.422 221.12 164.516 219.04C167.609 216.907 172.009 215.84 177.716 215.84H184.836V212.8C184.836 210.453 184.222 208.64 182.996 207.36C181.769 206.08 179.796 205.44 177.076 205.44C174.676 205.44 172.729 205.973 171.236 207.04C169.796 208.053 168.569 209.28 167.556 210.72L161.476 205.28C163.022 202.88 165.076 200.96 167.636 199.52C170.196 198.027 173.582 197.28 177.796 197.28C183.449 197.28 187.742 198.56 190.676 201.12C193.609 203.68 195.076 207.36 195.076 212.16V231.84H199.236V240H193.556ZM176.596 233.52C178.889 233.52 180.836 233.013 182.436 232C184.036 230.987 184.836 229.493 184.836 227.52V222H178.276C172.942 222 170.276 223.707 170.276 227.12V228.48C170.276 230.187 170.809 231.467 171.876 232.32C172.996 233.12 174.569 233.52 176.596 233.52ZM206.723 240V198.24H216.963V206.88H217.363C217.63 205.76 218.03 204.693 218.563 203.68C219.15 202.613 219.896 201.68 220.803 200.88C221.71 200.08 222.776 199.44 224.003 198.96C225.283 198.48 226.75 198.24 228.403 198.24H230.643V207.92H227.443C223.976 207.92 221.363 208.427 219.603 209.44C217.843 210.453 216.963 212.107 216.963 214.4V240H206.723ZM253.419 240.96C250.325 240.96 247.579 240.453 245.179 239.44C242.779 238.427 240.752 236.96 239.099 235.04C237.499 233.12 236.272 230.827 235.419 228.16C234.565 225.44 234.139 222.4 234.139 219.04C234.139 215.68 234.565 212.667 235.419 210C236.272 207.333 237.499 205.067 239.099 203.2C240.752 201.28 242.779 199.813 245.179 198.8C247.579 197.787 250.325 197.28 253.419 197.28C257.632 197.28 261.099 198.213 263.819 200.08C266.592 201.947 268.592 204.533 269.819 207.84L261.419 211.6C260.939 209.84 260.032 208.4 258.699 207.28C257.419 206.107 255.659 205.52 253.419 205.52C250.539 205.52 248.379 206.427 246.939 208.24C245.552 210.053 244.859 212.427 244.859 215.36V222.96C244.859 225.893 245.552 228.267 246.939 230.08C248.379 231.84 250.539 232.72 253.419 232.72C255.872 232.72 257.765 232.107 259.099 230.88C260.432 229.6 261.472 228.027 262.219 226.16L270.059 229.92C268.672 233.6 266.565 236.373 263.739 238.24C260.912 240.053 257.472 240.96 253.419 240.96ZM277.154 180.8H287.394V205.2H287.794C288.648 202.96 289.981 201.093 291.794 199.6C293.661 198.053 296.221 197.28 299.474 197.28C303.794 197.28 307.101 198.693 309.394 201.52C311.688 204.347 312.834 208.373 312.834 213.6V240H302.594V214.64C302.594 211.653 302.061 209.413 300.994 207.92C299.928 206.427 298.168 205.68 295.714 205.68C294.648 205.68 293.608 205.84 292.594 206.16C291.634 206.427 290.754 206.853 289.954 207.44C289.208 207.973 288.594 208.667 288.114 209.52C287.634 210.32 287.394 211.28 287.394 212.4V240H277.154V180.8Z" fill="white"/>
<path d="M767 374C863.65 374 942 295.65 942 199C942 102.35 863.65 24 767 24C670.35 24 592 102.35 592 199C592 295.65 670.35 374 767 374Z" fill="black"/>
<path d="M767 374C863.65 374 942 295.65 942 199C942 102.35 863.65 24 767 24C670.35 24 592 102.35 592 199C592 295.65 670.35 374 767 374Z" fill="url(#paint0_linear)"/>
<g opacity="0.5">
<circle cx="619.5" cy="285.5" r="14.5" fill="white"/>
<rect x="648" y="272" width="26" height="26" fill="white"/>
<path d="M708 266L688.947 299H727.053L708 266Z" fill="white"/>
<circle cx="748.5" cy="285.5" r="14.5" fill="white"/>
<rect x="777" y="272" width="26" height="26" fill="white"/>
<path d="M837 266L817.947 299H856.053L837 266Z" fill="white"/>
<rect x="605" y="189" width="26" height="26" fill="white"/>
<rect x="824" y="190" width="26" height="26" fill="white"/>
<path d="M665 183L645.947 216H684.053L665 183Z" fill="white"/>
<circle cx="705.5" cy="202.5" r="14.5" fill="white"/>
<rect x="734" y="189" width="26" height="26" fill="white"/>
<path d="M794 183L774.947 216H813.053L794 183Z" fill="white"/>
<rect x="779" y="103" width="26" height="26" fill="white"/>
<path d="M620 97L600.947 130H639.053L620 97Z" fill="white"/>
<circle cx="660.5" cy="116.5" r="14.5" fill="white"/>
<rect x="689" y="103" width="26" height="26" fill="white"/>
<path d="M749 97L729.947 130H768.053L749 97Z" fill="white"/>
<circle cx="837.5" cy="116.5" r="14.5" fill="white"/>
</g>
<g filter="url(#filter0_d)">
<path d="M768.151 227.427C764.222 231.356 764.222 237.81 768.151 241.833L801.079 274.76C805.007 278.689 811.462 278.689 815.484 274.76C819.413 270.831 819.413 264.377 815.484 260.354L782.557 227.427C778.535 223.498 772.174 223.498 768.151 227.427Z" fill="url(#paint1_linear)"/>
<path d="M722.502 269.802C771.117 269.802 810.527 230.392 810.527 181.778C810.527 133.163 771.117 93.7531 722.502 93.7531C673.887 93.7531 634.478 133.163 634.478 181.778C634.478 230.392 673.887 269.802 722.502 269.802Z" fill="url(#paint2_linear)"/>
<path d="M722.502 248.755C759.493 248.755 789.479 218.768 789.479 181.778C789.479 144.787 759.493 114.8 722.502 114.8C685.512 114.8 655.525 144.787 655.525 181.778C655.525 218.768 685.512 248.755 722.502 248.755Z" fill="#381387"/>
<rect x="651" y="145" width="23" height="76" fill="white"/>
<path d="M722.5 144L679 220H766L722.5 144Z" fill="white"/>
<path d="M799 182C799 203.539 799 207.145 799 221C777.461 221 760 203.539 760 182C760 160.461 777.461 143 799 143C799 167.632 799 160.461 799 182Z" fill="white"/>
<path fill-rule="evenodd" clip-rule="evenodd" d="M810.527 181.778C810.527 230.392 771.117 269.802 722.502 269.802C673.887 269.802 634.478 230.392 634.478 181.778C634.478 133.163 673.887 93.7531 722.502 93.7531C771.117 93.7531 810.527 133.163 810.527 181.778ZM788.954 181.977C788.954 218.968 758.968 248.954 721.977 248.954C684.987 248.954 655 218.968 655 181.977C655 144.987 684.987 115 721.977 115C758.968 115 788.954 144.987 788.954 181.977Z" fill="url(#paint3_linear)"/>
<path d="M817.543 245.2L785.925 276.818C785.083 277.66 785.083 279.063 785.925 279.905L866.559 360.539C867.401 361.381 868.805 361.381 869.646 360.539L901.264 328.922C902.106 328.08 902.106 326.677 901.264 325.835L820.63 245.2C819.788 244.358 818.385 244.358 817.543 245.2Z" fill="url(#paint4_linear)"/>
<path d="M797.105 291.186L855.245 349.326L889.97 314.601L831.83 256.46L797.105 291.186Z" fill="url(#paint5_linear)"/>
</g>
</g>
<defs>
<filter id="filter0_d" x="584.453" y="63.7382" width="347.458" height="347.457" filterUnits="userSpaceOnUse" color-interpolation-filters="sRGB">
<feFlood flood-opacity="0" result="BackgroundImageFix"/>
<feColorMatrix in="SourceAlpha" type="matrix" values="0 0 0 0 0 0 0 0 0 0 0 0 0 0 0 0 0 0 127 0"/>
<feOffset dx="-10.005" dy="10.005"/>
<feGaussianBlur stdDeviation="20.0099"/>
<feColorMatrix type="matrix" values="0 0 0 0 0.180392 0 0 0 0 0.0509804 0 0 0 0 0.45098 0 0 0 1 0"/>
<feBlend mode="normal" in2="BackgroundImageFix" result="effect1_dropShadow"/>
<feBlend mode="normal" in="SourceGraphic" in2="effect1_dropShadow" result="shape"/>
</filter>
<linearGradient id="paint0_linear" x1="529.5" y1="314.963" x2="897.918" y2="322.084" gradientUnits="userSpaceOnUse">
<stop stop-color="#3E1793"/>
<stop offset="1" stop-color="#2D0C73"/>
</linearGradient>
<linearGradient id="paint1_linear" x1="791.818" y1="224.48" x2="791.818" y2="277.707" gradientUnits="userSpaceOnUse">
<stop stop-color="#FABB05"/>
<stop offset="1" stop-color="#FAA505"/>
</linearGradient>
<linearGradient id="paint2_linear" x1="722.502" y1="93.7531" x2="722.502" y2="269.802" gradientUnits="userSpaceOnUse">
<stop stop-color="#FABB05"/>
<stop offset="1" stop-color="#FAA505"/>
</linearGradient>
<linearGradient id="paint3_linear" x1="722.502" y1="93.7531" x2="722.502" y2="269.802" gradientUnits="userSpaceOnUse">
<stop stop-color="#FABB05"/>
<stop offset="1" stop-color="#FAA505"/>
</linearGradient>
<linearGradient id="paint4_linear" x1="858.796" y1="244.569" x2="822.732" y2="361.171" gradientUnits="userSpaceOnUse">
<stop stop-color="#69F4EA"/>
<stop offset="1" stop-color="#20ABD2"/>
</linearGradient>
<linearGradient id="paint5_linear" x1="836.864" y1="256.332" x2="788.535" y2="296.679" gradientUnits="userSpaceOnUse">
<stop stop-color="white"/>
<stop offset="1" stop-color="#DEF3FF"/>
</linearGradient>
<clipPath id="clip0">
<rect width="984" height="345" fill="white"/>
</clipPath>
</defs>
</svg>
